<?xml version="1.0" encoding="utf-8"?>
<!DOCTYPE svg PUBLIC "-//W3C//DTD SVG 1.0//EN" "http://www.w3.org/TR/2001/REC-SVG-20010904/DTD/svg10.dtd">
<svg version="1.0" xmlns="http://www.w3.org/2000/svg" width="453px" height="375px" viewBox="0 0 453 375" preserveAspectRatio="xMidYMid meet">
 <g fill="#112e53">
  <path d="M229.74 363.49 c-1.21 -0.53 -7.64 -4 -14.28 -7.73 -6.67 -3.72 -13.23 -7.24 -14.56 -7.89 -3.40 -1.54 -9.91 -5.50 -11.45 -7 -0.73 -0.65 -1.82 -2.14 -2.43 -3.28 -1.17 -2.10 -1.17 -2.14 -1.29 -10.52 l-0.12 -8.41 -2.71 -3.72 c-1.46 -2.06 -6.15 -8.29 -10.39 -13.83 -4.29 -5.58 -7.85 -10.35 -7.93 -10.60 -0.36 -0.93 -7.89 -10.52 -9.14 -11.61 -1.33 -1.13 -1.33 -1.13 -2.79 -0.44 -2.39 1.13 -4.93 0.65 -9.91 -1.74 -2.35 -1.17 -4.81 -2.71 -5.50 -3.44 l-1.29 -1.29 -0.08 -6.43 -0.12 -6.43 1.90 -2.39 c1.05 -1.29 1.90 -2.55 1.90 -2.75 0 -0.49 -1.58 -3.20 -2.43 -4.25 -0.36 -0.44 -2.47 -3.88 -4.65 -7.68 -2.18 -3.76 -5.18 -8.98 -6.63 -11.53 -1.50 -2.55 -3.32 -5.82 -4.04 -7.28 -0.69 -1.46 -1.82 -3.36 -2.51 -4.25 -0.65 -0.89 -1.58 -2.43 -2.02 -3.44 -1.09 -2.27 -5.10 -9.18 -6.11 -10.52 -0.44 -0.57 -3.24 -5.18 -6.19 -10.31 -3.32 -5.66 -5.62 -9.26 -5.95 -9.14 -5.62 1.58 -7.16 1.21 -15.37 -3.88 -5.42 -3.32 -5.18 -2.79 -5.18 -12.50 l0 -8.21 1.25 -1.42 c0.65 -0.77 1.62 -1.54 2.10 -1.70 0.69 -0.20 4.49 -2.51 6.67 -4.04 0.16 -0.12 -0.93 -4.33 -2.55 -9.67 -0.73 -2.43 -1.54 -5.22 -1.78 -6.11 -0.44 -1.66 -0.53 -1.74 -8.05 -5.82 -4.17 -2.27 -8.01 -4.49 -8.57 -4.89 -1.25 -0.89 -22 -12.50 -22.37 -12.50 -0.69 0 -11.12 -6.51 -12.05 -7.56 -0.61 -0.61 -1.50 -1.94 -2.02 -2.95 l-0.97 -1.82 -0.12 -26.37 c-0.08 -25.32 -0.08 -26.45 0.69 -28.64 1.42 -4 4.37 -6.71 10.76 -9.95 1.33 -0.69 3.15 -1.66 4.04 -2.18 0.89 -0.53 2.27 -1.29 3.03 -1.66 0.77 -0.36 1.50 -0.81 1.62 -0.97 0.12 -0.16 0.85 -0.61 1.62 -0.97 2.14 -1.01 3.80 -1.94 4.04 -2.27 0.20 -0.28 5.50 -3.40 6.27 -3.68 0.32 -0.12 6.63 -3.76 9.10 -5.22 3.72 -2.27 8.17 -4.57 9.59 -5.06 0.97 -0.32 3.20 -0.61 5.02 -0.61 3.88 0 2.35 -0.73 24.43 11.45 23.05 12.66 25.32 13.95 26.82 15.41 1.42 1.29 2.75 3.52 3.40 5.70 0.57 1.86 0.40 54.20 -0.16 56.22 -0.32 1.09 -1.29 2.39 -2.87 3.96 l-2.39 2.35 1.78 2.31 c4.65 6.07 33.85 41.66 34.86 42.51 0.57 0.49 0.97 0.40 3.03 -0.53 1.29 -0.57 2.95 -1.05 3.64 -1.05 1.90 0 11.28 5.10 12.26 6.67 0.61 1.05 0.73 2.10 0.73 7.44 0 5.58 -0.08 6.35 -0.85 7.56 l-0.85 1.38 9.18 11.20 c17.47 21.40 25 30.50 26.78 32.48 1.94 2.18 2.10 2.18 5.62 0.36 2.14 -1.05 3.80 -0.97 6.92 0.44 2.18 0.97 2.79 1.13 3.28 0.73 0.77 -0.65 32.80 -39.76 36.24 -44.29 0.73 -0.93 0.73 -1.09 0.12 -2.39 -0.53 -1.05 -0.69 -2.75 -0.73 -7.68 l-0.04 -6.31 1.29 -1.33 c0.69 -0.69 2.06 -1.70 3.07 -2.18 1.01 -0.53 3.03 -1.66 4.53 -2.51 3.15 -1.86 4.09 -1.94 7.44 -0.57 1.38 0.57 2.63 1.01 2.79 1.01 0.32 0 4.97 -5.54 15.73 -18.81 4.13 -5.06 8.90 -10.96 10.68 -13.10 3.76 -4.61 6.43 -7.89 8.98 -11.12 l1.90 -2.35 -2.06 -1.90 c-3.88 -3.48 -3.68 -1.62 -3.72 -32.88 -0.04 -27.22 -0.04 -27.38 0.81 -29.40 1.13 -2.55 4.29 -5.58 7.48 -7.12 1.33 -0.65 2.67 -1.42 2.91 -1.66 0.28 -0.28 1.17 -0.73 1.94 -0.97 0.77 -0.24 1.42 -0.61 1.42 -0.81 0 -0.20 0.85 -0.65 1.86 -1.05 1.01 -0.40 2.06 -0.93 2.35 -1.17 0.53 -0.53 18.73 -10.72 19.13 -10.72 0.16 0 2.43 -1.29 5.02 -2.83 2.63 -1.58 5.14 -2.95 5.58 -3.03 0.49 -0.08 1.09 -0.28 1.33 -0.49 0.28 -0.16 1.42 -0.44 2.55 -0.65 1.09 -0.16 2.59 -0.40 3.32 -0.53 0.73 -0.16 2.10 0 3.03 0.32 0.97 0.36 7.64 3.96 14.88 8.01 7.24 4.09 14.32 8.09 15.77 8.90 12.78 7.12 14.84 8.41 17.23 10.76 4.09 3.96 3.92 2.59 3.96 33.13 l0.04 25.89 -0.93 2.02 c-1.05 2.22 -3.15 4.65 -5.38 6.07 -2.51 1.62 -22.29 12.70 -34.54 19.37 -6.43 3.52 -11.93 6.63 -12.17 6.88 -0.24 0.24 -0.85 1.74 -1.29 3.28 -2.31 7.73 -3.72 12.98 -3.72 13.75 0 0.61 1.05 1.42 4.13 3.24 5.70 3.40 5.58 3.07 5.58 12.74 0 7.08 -0.08 8.01 -0.77 9.18 -1.42 2.27 -12.54 8.25 -15.29 8.21 -0.61 -0.04 -1.86 -0.28 -2.75 -0.61 -1.25 -0.44 -1.74 -0.49 -2.10 -0.08 -0.24 0.28 -2.67 4.33 -5.38 8.98 -8.29 14.28 -9.38 16.14 -10.15 16.99 -0.40 0.44 -1.42 2.18 -2.27 3.84 -1.86 3.52 -10.44 18.40 -16.83 29.08 -6.27 10.52 -5.82 9.22 -3.92 11.16 0.89 0.93 1.78 2.18 1.94 2.87 0.16 0.65 0.20 3.92 0.08 7.32 -0.24 7.36 0 7 -6.71 10.64 -5.06 2.75 -6.75 3.07 -9.67 1.86 -0.81 -0.36 -1.66 -0.65 -1.86 -0.65 -0.36 0 -6.75 7.85 -11.49 14.16 -1.74 2.35 -6.19 8.17 -9.91 12.94 -3.68 4.77 -7.44 9.71 -8.29 10.92 l-1.62 2.18 -0.20 8.74 c-0.20 8.57 -0.24 8.74 -1.33 10.72 -0.65 1.13 -1.62 2.55 -2.22 3.15 -1.09 1.17 -7.28 4.93 -14.03 8.57 -1.98 1.09 -7.60 4.21 -12.50 6.96 -4.85 2.75 -8.94 4.97 -9.10 4.97 -0.12 0 -1.58 0.69 -3.24 1.50 -3.88 1.98 -7.24 2.22 -10.56 0.81z m-43.08 -74.91 c1.13 -3.07 3.96 -5.58 9.99 -8.86 4.93 -2.67 5.14 -2.87 4.65 -3.64 -13.75 -21.32 -25.64 -39.23 -26.25 -39.64 -0.53 -0.32 -1.33 -0.08 -3.64 1.09 -3.48 1.78 -5.14 1.90 -7.64 0.53 -10.19 -5.50 -13.31 -7.32 -14.60 -8.74 l-1.54 -1.58 0 -10.11 0 -10.07 1.01 -1.21 c0.57 -0.69 1.86 -1.74 2.83 -2.39 1.01 -0.61 1.82 -1.29 1.82 -1.50 0 -0.36 -5.02 -8.21 -15.57 -24.31 -13.71 -21.03 -18.65 -28.60 -25.36 -39.03 -4.09 -6.35 -7.68 -11.57 -8.01 -11.65 -0.57 -0.08 -11.49 5.74 -12.78 6.84 -0.89 0.73 -0.73 1.66 1.50 9.55 1.46 5.10 2.27 7.44 2.75 7.60 2.31 0.85 13.19 7.48 13.87 8.41 0.69 0.97 0.85 1.98 1.01 7.08 0.12 3.52 0.04 6.96 -0.24 8.37 -0.36 2.18 -0.65 2.63 -2.51 4.29 l-2.06 1.86 3.44 6.23 c3.96 7.20 34.99 61.28 35.88 62.61 0.57 0.85 0.73 0.85 2.75 0.40 l2.14 -0.53 4.13 2.14 c7.85 4.09 7.97 4.29 7.97 12.26 0 5.10 -0.12 5.99 -0.85 7.36 l-0.85 1.58 1.33 1.86 c1.13 1.66 13.71 18.16 20.95 27.54 l2.67 3.44 0.24 -7.89 c0.20 -6.15 0.40 -8.33 0.97 -9.91z m105.93 5.06 c4.21 -5.46 9.46 -12.21 11.65 -15.09 l4.04 -5.14 -0.85 -1.74 c-0.73 -1.54 -0.85 -2.51 -0.85 -7.68 l0 -5.91 1.25 -1.42 c1.46 -1.66 9.30 -5.95 11.08 -6.03 0.65 -0.04 1.70 0.08 2.31 0.24 1.01 0.24 1.21 0.08 3.28 -3.28 1.25 -1.94 6.23 -10.35 11.08 -18.69 4.89 -8.33 12.70 -21.72 17.39 -29.73 4.69 -8.01 8.90 -15.33 9.34 -16.22 l0.85 -1.70 -1.98 -1.21 c-3.15 -1.98 -3.32 -2.51 -3.15 -11.61 l0.12 -7.89 1.21 -1.17 c0.69 -0.65 2.39 -1.82 3.84 -2.59 1.46 -0.81 4.37 -2.43 6.47 -3.60 l3.84 -2.18 2.18 -7.85 2.18 -7.81 -1.05 -0.85 c-1.62 -1.29 -12.01 -7.12 -12.66 -7.12 -0.61 0 -2.99 3.52 -25.85 38.71 -7.56 11.65 -15.45 23.74 -17.51 26.90 -2.06 3.20 -4.29 6.63 -4.93 7.68 l-1.17 1.90 2.55 1.82 c1.74 1.21 2.75 2.27 3.03 3.11 0.69 2.02 0.61 18.65 -0.12 20.34 -0.65 1.58 -2.27 2.75 -8.53 6.19 -6.96 3.84 -9.38 4.97 -10.60 4.97 -0.65 0 -2.47 -0.65 -4.13 -1.42 -1.62 -0.77 -3.15 -1.42 -3.44 -1.42 -0.61 0 -0.28 -0.44 -15.13 22.12 -11.04 16.79 -11.97 18.28 -11.73 18.48 0.08 0.08 2.39 1.38 5.10 2.91 5.99 3.36 7.64 4.65 9.10 7.36 1.38 2.51 1.90 6.47 1.90 14.03 l0 5.26 1.13 -1.42 c0.61 -0.77 4.53 -5.86 8.74 -11.32z m-77.74 -24.07 c0.57 -0.32 1.29 -0.61 1.58 -0.61 0.28 0 0.97 -0.44 1.54 -0.97 1.17 -1.09 9.46 -5.78 12.09 -6.84 1.98 -0.81 5.82 -0.89 7.81 -0.20 0.77 0.24 5.58 2.79 10.76 5.66 5.18 2.83 9.63 5.18 9.91 5.18 0.49 0 19.54 -28.51 24.51 -36.68 l2.10 -3.48 -2.06 -1.86 c-2.59 -2.35 -2.67 -2.67 -2.39 -14.08 l0.20 -8.62 1.42 -1.38 c1.94 -1.90 16.74 -9.95 18.32 -9.95 0.49 0 2.02 0.53 3.40 1.17 l2.55 1.21 1.33 -1.70 c1.29 -1.62 10.27 -15.25 27.58 -41.94 4.41 -6.80 10.72 -16.50 14.08 -21.60 3.32 -5.10 6.07 -9.50 6.11 -9.83 0.04 -0.57 -14.76 -9.42 -15.73 -9.42 -0.28 0 -5.70 6.31 -12.01 14.08 -6.31 7.73 -14.40 17.55 -17.96 21.88 -3.52 4.33 -6.88 8.37 -7.40 9.06 -0.97 1.17 -0.97 1.21 -0.24 2.39 0.85 1.46 1.29 7.04 0.81 10.68 -0.36 2.95 -1.33 4 -6.84 7.20 -4.81 2.83 -6.27 3.11 -9.38 1.86 -1.50 -0.61 -2.47 -0.81 -2.79 -0.57 -0.28 0.20 -5.34 6.27 -11.20 13.51 -5.86 7.24 -13.83 17.03 -17.72 21.76 -9.46 11.61 -9.06 11 -8.29 12.46 0.44 0.89 0.61 2.51 0.61 6.43 0 6.96 -0.20 7.28 -5.54 10.56 -4.49 2.75 -6.07 3.40 -8.13 3.40 -1.86 0 -9.02 -3.76 -11.24 -5.86 l-1.66 -1.62 -0.28 -4.77 c-0.28 -5.02 -0.08 -7.20 0.85 -8.62 0.65 -1.01 1.90 0.65 -12.01 -16.14 -5.86 -7.12 -13.91 -16.87 -17.88 -21.68 -3.92 -4.81 -7.44 -8.98 -7.81 -9.26 -0.49 -0.40 -0.97 -0.36 -2.71 0.40 -1.42 0.61 -2.59 0.85 -3.56 0.69 -1.94 -0.24 -9.10 -4.37 -10.84 -6.19 l-1.33 -1.42 0.16 -6.55 c0.08 -3.60 0.20 -6.88 0.32 -7.28 0.16 -0.69 -3.24 -4.97 -27.34 -34.42 -7.12 -8.70 -9.55 -11.41 -10.31 -11.49 -1.01 -0.12 -13.55 6.51 -15.09 7.97 -0.85 0.81 -0.73 1.01 11.04 19.05 3.40 5.22 9.91 15.25 14.48 22.25 18.16 27.95 21.52 33.04 22.33 33.77 0.81 0.73 0.89 0.73 3.20 -0.40 1.78 -0.81 2.75 -1.05 3.80 -0.89 1.98 0.32 15.90 7.89 17.68 9.63 0.85 0.81 1.62 2.02 1.74 2.79 0.44 2.14 0.32 16.26 -0.16 17.92 -0.24 0.93 -1.09 2.18 -2.22 3.24 -0.97 0.93 -1.78 1.86 -1.78 2.06 0 0.20 0.85 1.74 1.90 3.44 2.91 4.69 22.33 34.46 23.42 35.92 l1.01 1.33 2.10 -1.01 c1.17 -0.57 2.59 -1.29 3.20 -1.62z"/>
  <path d="M225.49 150.02 c-14.80 -1.78 -22.81 -7.12 -24.51 -16.34 -0.28 -1.54 -0.36 -7.85 -0.28 -17.76 l0.16 -15.41 1.09 -3.24 c0.61 -1.82 1.74 -4.13 2.63 -5.26 1.70 -2.27 5.14 -4.77 7.56 -5.46 0.89 -0.28 2.06 -0.69 2.63 -0.93 0.65 -0.28 8.01 -0.53 20.02 -0.69 l19.01 -0.24 2.99 -1.09 c11.20 -4.04 15.49 -11.77 15.37 -27.54 -0.04 -4.97 0.08 -6.51 0.53 -6.75 0.93 -0.61 10.48 -0.40 13.06 0.24 7.12 1.82 11.12 5.66 14.16 13.47 5.99 15.49 3.64 37.82 -4.85 46.31 -2.18 2.18 -5.50 4.21 -8.49 5.18 -1.21 0.40 -7.60 0.61 -26.49 0.77 l-24.83 0.20 -0.61 1.05 c-0.93 1.66 -0.32 3.07 1.50 3.56 0.89 0.28 7.32 0.44 16.38 0.44 l14.92 0 -0.16 8.01 c-0.12 7.77 -0.16 8.01 -1.29 10.48 -2.47 5.34 -8.13 8.57 -18.32 10.44 -4.29 0.81 -17.51 1.13 -22.16 0.57z m30.42 -11.28 c4.65 -2.83 2.55 -10.52 -2.91 -10.52 -4.33 0 -7.16 4.65 -5.14 8.41 1.50 2.79 5.30 3.80 8.05 2.10z"/>
  <path d="M185.04 115.68 c-5.26 -0.69 -8.45 -2.27 -11.97 -5.95 -5.34 -5.58 -8.05 -14.84 -8.09 -27.67 0 -8.57 1.50 -15.90 4.57 -22 1.05 -2.06 4.93 -6.07 7 -7.32 4.25 -2.47 2.95 -2.35 30.62 -2.59 24.75 -0.20 25.40 -0.20 25.97 -1.01 0.93 -1.25 0.81 -3.28 -0.24 -4 -0.77 -0.57 -2.99 -0.65 -16.18 -0.65 -8.37 0 -15.33 -0.16 -15.45 -0.36 -0.12 -0.16 -0.24 -3.60 -0.28 -7.56 -0.04 -6.63 0 -7.44 0.85 -9.67 1.90 -4.89 6.67 -8.41 14.16 -10.31 2.79 -0.69 5.50 -0.97 14.44 -1.29 9.91 -0.40 11.49 -0.36 15.37 0.24 11.04 1.78 17.63 5.74 19.94 11.93 1.33 3.52 1.58 8.01 1.25 23.50 -0.36 15.41 -0.40 15.81 -2.79 20.47 -1.21 2.43 -4.93 5.62 -7.64 6.63 -4.04 1.50 -5.99 1.66 -25 1.98 -18.40 0.32 -18.65 0.32 -21.23 1.29 -5.42 2.06 -9.06 5.26 -11.53 10.07 -2.10 4.17 -2.63 7.36 -2.63 15.90 0 6.43 -0.08 7.52 -0.69 8.01 -0.77 0.69 -6.31 0.85 -10.44 0.36z m32.84 -79.96 c4.04 -1.90 3.92 -8.37 -0.16 -10.11 -2.91 -1.17 -6.11 -0.04 -7.48 2.75 -0.93 1.82 -0.93 3.48 0.08 5.14 1.66 2.67 4.69 3.60 7.56 2.22z"/>
 </g>
</svg>